<?xml version="1.0" standalone="no"?><!DOCTYPE svg PUBLIC "-//W3C//DTD SVG 1.1//EN" "http://www.w3.org/Graphics/SVG/1.1/DTD/svg11.dtd"><svg t="1610607072999" class="icon" viewBox="0 0 1024 1024" version="1.1" xmlns="http://www.w3.org/2000/svg" p-id="1879" xmlns:xlink="http://www.w3.org/1999/xlink" width="200" height="200"><defs><style type="text/css"></style></defs><path d="M512 960c-211.2 0-384-172.8-384-384s172.8-384 384-384c38.4 0 64 25.6 64 64s-25.6 64-64 64C371.2 320 256 435.2 256 576s115.2 256 256 256 256-115.2 256-256c0-38.4 25.6-64 64-64s64 25.6 64 64c0 211.2-172.8 384-384 384z" fill="#FFA500" p-id="1880"></path><path d="M806.4 211.2L608 76.8C569.6 51.2 512 76.8 512 121.6v268.8c0 44.8 57.6 70.4 96 44.8l198.4-134.4c32-19.2 32-70.4 0-89.6" fill="#FFA500" p-id="1881"></path></svg>